<?xml version="1.0" ?><!DOCTYPE svg  PUBLIC '-//W3C//DTD SVG 1.1//EN'  'http://www.w3.org/Graphics/SVG/1.1/DTD/svg11.dtd'><svg height="64px" style="shape-rendering:geometricPrecision; text-rendering:geometricPrecision; image-rendering:optimizeQuality; fill-rule:evenodd; clip-rule:evenodd" version="1.1" viewBox="0 0 22246 22246" width="64px" xml:space="preserve" xmlns="http://www.w3.org/2000/svg" xmlns:xlink="http://www.w3.org/1999/xlink"><defs><style type="text/css">
   <![CDATA[
    .fil7 {fill:none}
    .fil3 {fill:#7D959E}
    .fil5 {fill:#AEE3D1}
    .fil1 {fill:#E4EFF7}
    .fil0 {fill:#F5EFEB}
    .fil2 {fill:#FA96A2}
    .fil4 {fill:#FFE7C2}
    .fil6 {fill:#396182;fill-rule:nonzero}
   ]]>
  </style><clipPath id="id0"><path d="M11123 0c6143,0 11123,4980 11123,11123 0,6143 -4980,11123 -11123,11123 -6143,0 -11123,-4980 -11123,-11123 0,-6143 4980,-11123 11123,-11123z"/></clipPath></defs><g id="Layer_x0020_1"><path class="fil0" d="M11123 0c6143,0 11123,4980 11123,11123 0,6143 -4980,11123 -11123,11123 -6143,0 -11123,-4980 -11123,-11123 0,-6143 4980,-11123 11123,-11123z"/><g style="clip-path:url(#id0)"><g id="_540444272"><path class="fil1" d="M13548 5910c4902,0 8875,3973 8875,8875 0,4901 -3973,8875 -8875,8875 -4901,0 -8875,-3974 -8875,-8875 0,-4902 3974,-8875 8875,-8875zm0 4196c2584,0 4679,2095 4679,4679 0,2584 -2095,4679 -4679,4679 -2584,0 -4679,-2095 -4679,-4679 0,-2584 2095,-4679 4679,-4679z" id="1"/><path class="fil2" d="M4673 14785c0,-4902 3974,-8875 8875,-8875l0 4196c-2584,0 -4679,2095 -4679,4679l-4196 0z"/><path class="fil3" d="M13548 23660l0 -4196c2032,0 3762,-1296 4408,-3106l3900 1552c-1264,3359 -4507,5750 -8308,5750z"/><path class="fil4" d="M6124 19649l3545 -2247c-505,-747 -800,-1648 -800,-2617l-4196 0c0,1796 534,3467 1451,4864z"/><path class="fil5" d="M9669 17402l-3545 2247c1586,2416 4319,4011 7424,4011l0 -4196c-1615,0 -3038,-818 -3879,-2062z"/><g><rect class="fil5" height="1442" width="1159" x="10986" y="15364"/><rect class="fil2" height="2549" width="1159" x="12969" y="14257"/><rect class="fil1" height="4043" width="1159" x="14952" y="12764"/></g><g><path class="fil6" d="M13548 5736c2499,0 4761,1013 6399,2650 1637,1638 2650,3900 2650,6399 0,2498 -1013,4761 -2650,6398 -1638,1637 -3900,2650 -6399,2650 -2498,0 -4761,-1013 -6398,-2650 -1637,-1637 -2650,-3900 -2650,-6398 0,-2499 1013,-4761 2650,-6398 1637,-1638 3900,-2651 6398,-2651zm6153 2896c-1575,-1574 -3750,-2548 -6153,-2548 -2402,0 -4578,974 -6152,2548 -1575,1575 -2549,3750 -2549,6153 0,2403 974,4578 2549,6152 1574,1575 3749,2549 6152,2549 2403,0 4578,-974 6153,-2549 1574,-1574 2548,-3749 2548,-6152 0,-2403 -974,-4578 -2548,-6153zm-6153 1300c1340,0 2553,543 3432,1421 878,878 1421,2092 1421,3432 0,1340 -543,2553 -1421,3431 -879,879 -2092,1422 -3432,1422 -1340,0 -2553,-544 -3431,-1422 -878,-878 -1422,-2091 -1422,-3431 0,-1340 544,-2554 1422,-3432 878,-878 2091,-1421 3431,-1421zm3186 1667c-815,-815 -1942,-1319 -3186,-1319 -1244,0 -2370,504 -3185,1319 -816,815 -1320,1942 -1320,3186 0,1244 504,2370 1320,3186 815,815 1941,1319 3185,1319 1244,0 2371,-504 3186,-1319 815,-816 1319,-1942 1319,-3186 0,-1244 -504,-2371 -1319,-3186z"/><path class="fil6" d="M10986 15190l1159 0c96,0 174,78 174,174l0 1442c0,96 -78,174 -174,174l-1159 0c-96,0 -174,-78 -174,-174l0 -1442c0,-96 78,-174 174,-174zm985 348l-811 0 0 1094 811 0 0 -1094z"/><path class="fil6" d="M12969 14083l1159 0c96,0 173,78 173,174l0 2549c0,96 -77,174 -173,174l-1159 0c-96,0 -174,-78 -174,-174l0 -2549c0,-96 78,-174 174,-174zm985 348l-811 0 0 2201 811 0 0 -2201z"/><path class="fil6" d="M14952 12590l1158 0c96,0 174,78 174,174l0 4042c0,96 -78,174 -174,174l-1158 0c-96,0 -174,-78 -174,-174l0 -4042c0,-96 78,-174 174,-174zm984 347l-811 0 0 3695 811 0 0 -3695z"/><path class="fil6" d="M5044 3548c-96,0 -174,-78 -174,-174 0,-96 78,-174 174,-174l3656 0c96,0 174,78 174,174 0,96 -78,174 -174,174l-3656 0z"/><path class="fil6" d="M5044 4706c-96,0 -174,-78 -174,-174 0,-95 78,-173 174,-173l1975 0c96,0 174,78 174,173 0,96 -78,174 -174,174l-1975 0z"/><path class="fil6" d="M5044 5865c-96,0 -174,-78 -174,-174 0,-96 78,-174 174,-174l3656 0c96,0 174,78 174,174 0,96 -78,174 -174,174l-3656 0z"/><path class="fil6" d="M5044 7024c-96,0 -174,-78 -174,-174 0,-96 78,-174 174,-174l1975 0c96,0 174,78 174,174 0,96 -78,174 -174,174l-1975 0z"/><path class="fil6" d="M4282 4359c95,0 173,78 173,173 0,96 -78,174 -173,174l-78 0c-95,0 -173,-78 -173,-174 0,-95 78,-173 173,-173l78 0z"/><path class="fil6" d="M4282 3200c95,0 173,78 173,174 0,96 -78,174 -173,174l-78 0c-95,0 -173,-78 -173,-174 0,-96 78,-174 173,-174l78 0z"/><path class="fil6" d="M4282 5517c95,0 173,78 173,174 0,96 -78,174 -173,174l-78 0c-95,0 -173,-78 -173,-174 0,-96 78,-174 173,-174l78 0z"/><path class="fil6" d="M4282 6676c95,0 173,78 173,174 0,96 -78,174 -173,174l-78 0c-95,0 -173,-78 -173,-174 0,-96 78,-174 173,-174l78 0z"/><path class="fil6" d="M13374 5910c0,-96 78,-174 174,-174 96,0 174,78 174,174l0 4196c0,96 -78,173 -174,173 -96,0 -174,-77 -174,-173l0 -4196z"/><path class="fil6" d="M4674 14959c-96,0 -174,-78 -174,-174 0,-96 78,-174 174,-174l4195 0c96,0 174,78 174,174 0,96 -78,174 -174,174l-4195 0z"/><path class="fil6" d="M6217 19796c-81,51 -188,27 -239,-54 -52,-81 -28,-188 53,-239l3545 -2248c80,-51 188,-27 239,53 52,81 27,189 -53,240l-3545 2248z"/><path class="fil6" d="M13722 23660c0,96 -78,173 -174,173 -96,0 -174,-77 -174,-173l0 -4196c0,-96 78,-174 174,-174 96,0 174,78 174,174l0 4196z"/><path class="fil6" d="M21920 17749c89,35 132,136 97,225 -35,89 -136,132 -225,97l-3900 -1552c-89,-35 -132,-136 -97,-225 35,-88 136,-132 225,-97l3900 1552z"/></g></g></g><path class="fil7" d="M11123 0c6143,0 11123,4980 11123,11123 0,6143 -4980,11123 -11123,11123 -6143,0 -11123,-4980 -11123,-11123 0,-6143 4980,-11123 11123,-11123z"/></g></svg>