<?xml version="1.0" ?><!DOCTYPE svg  PUBLIC '-//W3C//DTD SVG 1.1//EN'  'http://www.w3.org/Graphics/SVG/1.1/DTD/svg11.dtd'><svg enable-background="new 0 0 64 64" id="Layer_1" version="1.1" viewBox="0 0 64 64" xml:space="preserve" xmlns="http://www.w3.org/2000/svg" xmlns:xlink="http://www.w3.org/1999/xlink"><g><polygon fill="#808080" points="55.1,60.7 55.1,58.5 53.4,58.5 53.5,60.7 44,60.7 44,58.5 42.3,58.5 42.3,60.7 32.8,60.7    32.8,58.5 31.2,58.5 31.2,60.7 21.7,60.7 21.7,58.5 20.1,58.5 20.1,60.7 10.6,60.7 10.6,58.5 8.9,58.5 8.9,60.7 3.3,60.7 3.3,53.3    5.6,53.3 5.6,51.6 3.3,51.6 3.3,42.1 5.6,42.1 5.6,40.5 3.3,40.5 3.3,31 5.6,31 5.6,29.4 3.3,29.4 3.3,19.9 5.6,19.9 5.6,18.2    3.3,18.2 3.3,8.8 5.6,8.8 5.6,7.1 3.3,7.1 3.3,0 0,0 0,64 64,64 64,60.6  "/><rect fill="#D3D3D3" height="0.8" width="0.8" x="7.4" y="52"/><path d="M61.5,52.8l-1.7,0l0-0.8l1.7,0L61.5,52.8z M58.2,52.8l-1.7,0l0-0.8l1.7,0L58.2,52.8z M54.8,52.8l-1.7,0   l0-0.8l1.7,0L54.8,52.8z M51.5,52.8l-1.7,0l0-0.8l1.7,0L51.5,52.8z M48.2,52.8l-1.7,0l0-0.8l1.7,0L48.2,52.8z M44.9,52.8l-1.7,0   l0-0.8l1.7,0L44.9,52.8z M41.5,52.8l-1.7,0l0-0.8l1.7,0L41.5,52.8z M38.2,52.8l-1.7,0l0-0.8l1.7,0L38.2,52.8z M34.9,52.9l-1.7,0   l0-0.8l1.7,0L34.9,52.9z M31.5,52.9l-1.7,0l0-0.8l1.7,0L31.5,52.9z M28.2,52.9l-1.7,0l0-0.8l1.7,0L28.2,52.9z M24.9,52.9l-1.7,0   l0-0.8l1.7,0L24.9,52.9z M21.5,52.9l-1.7,0l0-0.8l1.7,0L21.5,52.9z M18.2,52.9l-1.7,0l0-0.8l1.7,0L18.2,52.9z M14.9,52.9l-1.7,0   l0-0.8l1.7,0L14.9,52.9z M11.5,52.9l-1.7,0l0-0.8l1.7,0L11.5,52.9z" fill="#3476A3"/><rect fill="#3476A3" height="0.8" width="0.8" x="63.2" y="52"/><rect fill="#D3D3D3" height="0.8" width="0.8" x="7.4" y="40.9"/><path d="M61.5,41.7l-1.7,0l0-0.8l1.7,0L61.5,41.7z M58.2,41.7l-1.7,0l0-0.8l1.7,0L58.2,41.7z M54.8,41.7l-1.7,0   l0-0.8l1.7,0L54.8,41.7z M51.5,41.7l-1.7,0l0-0.8l1.7,0L51.5,41.7z M48.2,41.7l-1.7,0l0-0.8l1.7,0L48.2,41.7z M44.8,41.7l-1.7,0   l0-0.8l1.7,0L44.8,41.7z M41.5,41.7l-1.7,0l0-0.8l1.7,0L41.5,41.7z M38.2,41.7l-1.7,0l0-0.8l1.7,0L38.2,41.7z M34.8,41.7l-1.7,0   l0-0.8l1.7,0L34.8,41.7z M31.5,41.7l-1.7,0l0-0.8l1.7,0L31.5,41.7z M28.2,41.7l-1.7,0l0-0.8l1.7,0L28.2,41.7z M24.8,41.7l-1.7,0   l0-0.8l1.7,0L24.8,41.7z M21.5,41.7l-1.7,0l0-0.8l1.7,0L21.5,41.7z M18.2,41.7l-1.7,0l0-0.8l1.7,0L18.2,41.7z M14.8,41.7l-1.7,0   l0-0.8l1.7,0L14.8,41.7z M11.5,41.7l-1.7,0l0-0.8l1.7,0L11.5,41.7z" fill="#3476A3"/><rect fill="#3476A3" height="0.8" width="0.8" x="63.2" y="40.9"/><rect fill="#D3D3D3" height="0.8" width="0.8" x="7.3" y="29.8"/><path d="M61.5,30.6l-1.7,0l0-0.8l1.7,0L61.5,30.6z M58.2,30.6l-1.7,0l0-0.8l1.7,0L58.2,30.6z M54.8,30.6l-1.7,0   l0-0.8l1.7,0L54.8,30.6z M51.5,30.6l-1.7,0l0-0.8l1.7,0L51.5,30.6z M48.2,30.6l-1.7,0l0-0.8l1.7,0L48.2,30.6z M44.8,30.6l-1.7,0   l0-0.8l1.7,0L44.8,30.6z M41.5,30.6l-1.7,0l0-0.8l1.7,0L41.5,30.6z M38.2,30.6l-1.7,0l0-0.8l1.7,0L38.2,30.6z M34.8,30.6l-1.7,0   l0-0.8l1.7,0L34.8,30.6z M31.5,30.6l-1.7,0l0-0.8l1.7,0L31.5,30.6z M28.2,30.6l-1.7,0l0-0.8l1.7,0L28.2,30.6z M24.8,30.6l-1.7,0   l0-0.8l1.7,0L24.8,30.6z M21.5,30.6l-1.7,0l0-0.8l1.7,0L21.5,30.6z M18.2,30.6l-1.7,0l0-0.8l1.7,0L18.2,30.6z M14.8,30.6l-1.7,0   l0-0.8l1.7,0L14.8,30.6z M11.5,30.6l-1.7,0l0-0.8l1.7,0L11.5,30.6z" fill="#3476A3"/><rect fill="#3476A3" height="0.8" width="0.8" x="63.2" y="29.7"/><rect fill="#D3D3D3" height="0.8" width="0.8" x="7.3" y="18.6"/><path d="M61.5,19.4l-1.7,0l0-0.8l1.7,0L61.5,19.4z M58.2,19.4l-1.7,0l0-0.8l1.7,0L58.2,19.4z M54.8,19.4l-1.7,0   l0-0.8l1.7,0L54.8,19.4z M51.5,19.4l-1.7,0l0-0.8l1.7,0L51.5,19.4z M48.2,19.4l-1.7,0l0-0.8l1.7,0L48.2,19.4z M44.8,19.4l-1.7,0   l0-0.8l1.7,0L44.8,19.4z M41.5,19.4l-1.7,0l0-0.8l1.7,0L41.5,19.4z M38.2,19.5l-1.7,0l0-0.8l1.7,0L38.2,19.5z M34.8,19.5l-1.7,0   l0-0.8l1.7,0L34.8,19.5z M31.5,19.5l-1.7,0l0-0.8l1.7,0L31.5,19.5z M28.2,19.5l-1.7,0l0-0.8l1.7,0L28.2,19.5z M24.8,19.5l-1.7,0   l0-0.8l1.7,0L24.8,19.5z M21.5,19.5l-1.7,0l0-0.8l1.7,0L21.5,19.5z M18.2,19.5l-1.7,0l0-0.8l1.7,0L18.2,19.5z M14.8,19.5l-1.7,0   l0-0.8l1.7,0L14.8,19.5z M11.5,19.5l-1.7,0l0-0.8l1.7,0L11.5,19.5z" fill="#3476A3"/><rect fill="#3476A3" height="0.8" width="0.8" x="63.2" y="18.6"/><rect fill="#D3D3D3" height="0.8" width="0.8" x="7.3" y="7.5"/><path d="M61.5,8.3l-1.7,0l0-0.8l1.7,0L61.5,8.3z M58.2,8.3l-1.7,0l0-0.8l1.7,0L58.2,8.3z M54.8,8.3l-1.7,0l0-0.8   l1.7,0L54.8,8.3z M51.5,8.3l-1.7,0l0-0.8l1.7,0L51.5,8.3z M48.2,8.3l-1.7,0l0-0.8l1.7,0L48.2,8.3z M44.8,8.3l-1.7,0l0-0.8l1.7,0   L44.8,8.3z M41.5,8.3l-1.7,0l0-0.8l1.7,0L41.5,8.3z M38.2,8.3l-1.7,0l0-0.8l1.7,0L38.2,8.3z M34.8,8.3l-1.7,0l0-0.8l1.7,0L34.8,8.3   z M31.5,8.3l-1.7,0l0-0.8l1.7,0L31.5,8.3z M28.2,8.3l-1.7,0l0-0.8l1.7,0L28.2,8.3z M24.8,8.3l-1.7,0l0-0.8l1.7,0L24.8,8.3z    M21.5,8.3l-1.7,0l0-0.8l1.7,0L21.5,8.3z M18.2,8.3l-1.7,0l0-0.8l1.7,0L18.2,8.3z M14.8,8.3l-1.7,0l0-0.8l1.7,0L14.8,8.3z    M11.5,8.3l-1.7,0l0-0.8l1.7,0L11.5,8.3z" fill="#3476A3"/><rect fill="#3476A3" height="0.8" width="0.8" x="63.2" y="7.5"/><path d="M60.8,16.7c-0.7,0-1.2,0.4-1.5,0.9l-4.2,0l-5.7,5.7l-6.2,0L28.5,37.9l-11.8,0l-9.6,9.6l1.2,1.2l9.1-9.1   l11.8,0L43.8,25l6.2,0l5.7-5.7l3.6,0c0.3,0.5,0.9,0.9,1.5,0.9c1,0,1.7-0.8,1.7-1.7C62.5,17.5,61.7,16.7,60.8,16.7z" fill="#F9A03E"/><path d="M60.8,30.5c-0.7,0-1.2,0.4-1.5,0.9l-3,0L41,16.2l-4.5,0L27,25.8l-9.7,0L6.8,36.3l1.2,1.2l10-10l9.7,0   l9.5-9.5l3.1,0l15.2,15.2l3.8,0c0.3,0.5,0.9,0.9,1.5,0.9c1,0,1.7-0.8,1.7-1.7C62.5,31.3,61.7,30.5,60.8,30.5z" fill="#A72847"/><path d="M60.8,36.2c-0.6,0-1.1,0.3-1.4,0.8l-10.6,0l-5.9,5.9l-8.7,0l-6.3,6.3l-11.8,0l-6.8,6.8l1.2,1.2l6.3-6.3   l11.8,0l6.3-6.3l8.7,0l5.9-5.9l9.7,0c0.3,0.6,0.9,1.1,1.6,1.1c1,0,1.7-0.8,1.7-1.7C62.5,36.9,61.7,36.2,60.8,36.2z" fill="#4E8765"/><path d="M60.8,9c-0.7,0-1.3,0.4-1.6,1l-8.6,0l-21,21L11.8,13.3l-4.5,0l0,1.7l3.8,0l18.4,18.4l21.7-21.7l8,0   c0.3,0.5,0.8,0.8,1.5,0.8c1,0,1.7-0.8,1.7-1.7C62.5,9.8,61.7,9,60.8,9z" fill="#3476A3"/></g></svg>