<?xml version="1.0" ?><!DOCTYPE svg  PUBLIC '-//W3C//DTD SVG 1.1//EN'  'http://www.w3.org/Graphics/SVG/1.1/DTD/svg11.dtd'><svg height="64px" style="shape-rendering:geometricPrecision; text-rendering:geometricPrecision; image-rendering:optimizeQuality; fill-rule:evenodd; clip-rule:evenodd" version="1.1" viewBox="0 0 857762 857758" width="64px" xml:space="preserve" xmlns="http://www.w3.org/2000/svg" xmlns:xlink="http://www.w3.org/1999/xlink"><defs><style type="text/css">
   <![CDATA[
    .str0 {stroke:#396182;stroke-width:13399.5;stroke-linecap:round;stroke-linejoin:round}
    .fil3 {fill:none}
    .fil2 {fill:#CCC16C}
    .fil0 {fill:#E4EFF7}
    .fil1 {fill:#F2E796}
   ]]>
  </style></defs><g id="Layer_x0020_1"><g id="_535284912"><ellipse class="fil0" cx="428882" cy="428879" rx="428881" ry="428879"/><rect class="fil1" height="49001" width="129528" x="561201" y="544221"/><rect class="fil2" height="18369" width="129528" x="561201" y="574853"/><rect class="fil1" height="49001" width="129528" x="551042" y="593223"/><rect class="fil2" height="18369" width="129528" x="551042" y="623855"/><rect class="fil1" height="49001" width="129528" x="381515" y="544221"/><rect class="fil2" height="18369" width="129528" x="381515" y="574853"/><rect class="fil1" height="49001" width="129528" x="381515" y="593223"/><rect class="fil2" height="18369" width="129528" x="381515" y="623855"/><rect class="fil1" height="49001" width="129528" x="394212" y="495220"/><rect class="fil2" height="18369" width="129528" x="394212" y="525852"/><rect class="fil1" height="49001" width="129528" x="381515" y="446218"/><rect class="fil2" height="18369" width="129528" x="381515" y="476850"/><rect class="fil1" height="49001" width="129528" x="187227" y="544221"/><rect class="fil2" height="18369" width="129528" x="187227" y="574853"/><rect class="fil1" height="49001" width="129528" x="201830" y="593223"/><rect class="fil2" height="18369" width="129528" x="201830" y="623855"/><rect class="fil1" height="49001" width="129528" x="201830" y="495220"/><rect class="fil2" height="18369" width="129528" x="201830" y="525852"/><rect class="fil1" height="49001" width="129528" x="218972" y="446218"/><rect class="fil2" height="18369" width="129528" x="218972" y="476850"/><rect class="fil1" height="49001" width="129528" x="201830" y="397217"/><rect class="fil2" height="18369" width="129528" x="201830" y="427849"/><rect class="fil1" height="49001" width="129528" x="201830" y="348215"/><rect class="fil2" height="18369" width="129528" x="201830" y="378848"/><rect class="fil1" height="49001" width="129528" x="177370" y="299214"/><rect class="fil2" height="18369" width="129528" x="177370" y="329846"/><g><polyline class="fil3 str0" points="621088,468018 670940,479229 673740,430175 "/><g><polyline class="fil3 str0" points="670940,479229 538856,303953 459549,363975 286632,175808 "/><g><polyline class="fil3 str0" points="153538,201604 153538,642222 704228,642222 "/><polyline class="fil3 str0" points="690730,593221 690730,544220 561199,544220 561199,593221 "/><polygon class="fil3 str0" points="680567,593221 551044,593221 551044,642222 680567,642222 "/><polygon class="fil3 str0" points="511043,593221 381515,593221 381515,642222 511043,642222 "/><polyline class="fil3 str0" points="510009,544220 523739,544220 523739,495219 394212,495219 394212,544220 "/><polyline class="fil3 str0" points="511043,495219 511043,446218 381515,446218 381515,495219 396454,495219 "/><path class="fil3 str0" d="M202098 544220l-14873 0 0 49001 16738 0m112793 0l0 -49001"/><polygon class="fil3 str0" points="331359,593221 201828,593221 201828,642222 331359,642222 "/><polyline class="fil3 str0" points="219969,495219 201828,495219 201828,544220 331359,544220 331359,495219 "/><polygon class="fil3 str0" points="348501,446218 218974,446218 218974,495219 348501,495219 "/><path class="fil3 str0" d="M201828 397217l0 49001 18145 0m111386 0l0 -49001"/><polygon class="fil3 str0" points="331359,348216 201828,348216 201828,397217 331359,397217 "/><polyline class="fil3 str0" points="306901,348216 306901,299215 177370,299215 177370,348216 202470,348216 "/><polyline class="fil3 str0" points="511043,593221 511043,544220 381515,544220 381515,593221 "/></g></g></g></g></g></svg>